<?xml version="1.0" encoding="utf-8"?>
<!-- Generator: Adobe Illustrator 16.0.0, SVG Export Plug-In . SVG Version: 6.00 Build 0)  -->
<!DOCTYPE svg PUBLIC "-//W3C//DTD SVG 1.1//EN" "http://www.w3.org/Graphics/SVG/1.1/DTD/svg11.dtd">
<svg version="1.1" id="Layer_1" xmlns="http://www.w3.org/2000/svg" xmlns:xlink="http://www.w3.org/1999/xlink" x="0px" y="0px"
	 width="359.783px" height="617.392px" viewBox="0 0 359.783 617.392" enable-background="new 0 0 359.783 617.392"
	 xml:space="preserve">
<g>
	<polygon fill-rule="evenodd" clip-rule="evenodd" fill="#FF0000" points="19.805,553.379 25.132,540.062 40.311,542.193 
		43.507,553.379 31.79,562.165 26.463,559.771 19.805,553.379 19.805,553.379 	"/>
	<polygon fill-rule="evenodd" clip-rule="evenodd" fill="#FFEA00" points="272.536,562.165 311.416,524.616 331.657,557.639 
		304.492,566.162 275.997,566.162 272.536,562.165 272.536,562.165 	"/>
	<polygon fill-rule="evenodd" clip-rule="evenodd" fill="#FF9900" points="164.146,590.394 184.386,564.03 274.133,562.165 
		250.432,603.177 164.146,590.394 164.146,590.394 	"/>
	<polygon fill-rule="evenodd" clip-rule="evenodd" fill="#0CC10C" points="96.237,564.03 101.296,542.193 119.672,533.67 
		145.238,531.54 165.744,540.062 167.076,562.165 153.759,585.867 128.194,598.917 104.758,588.266 96.237,574.948 96.237,564.03 
		96.237,564.03 	"/>
	<polygon fill-rule="evenodd" clip-rule="evenodd" fill="#FF0000" points="119.672,492.126 182.522,513.966 226.463,516.093 
		275.997,555.241 236.583,564.03 184.386,564.03 165.744,535.535 99.699,527.014 119.672,492.126 119.672,492.126 	"/>
	<polygon fill-rule="evenodd" clip-rule="evenodd" fill="#00CCFF" points="218.207,494.523 260.551,476.946 284.253,542.193 
		223.268,524.616 218.207,494.523 218.207,494.523 	"/>
	<polygon fill-rule="evenodd" clip-rule="evenodd" fill="#FFEA00" points="89.313,527.014 119.672,479.078 167.076,498.519 
		158.82,516.093 118.075,498.519 106.356,509.701 152.162,533.67 145.238,533.67 129.792,533.67 113.014,540.062 89.313,527.014 
		89.313,527.014 	"/>
	<polygon fill-rule="evenodd" clip-rule="evenodd" fill="#FF9900" points="46.969,559.771 75.731,513.966 77.595,568.557 
		46.969,559.771 46.969,559.771 	"/>
	<polygon fill-rule="evenodd" clip-rule="evenodd" fill="#FFFFFF" points="184.386,12.233 177.461,34.337 155.357,42.86 
		175.864,53.512 170.804,77.747 194.238,62.566 214.747,71.088 204.625,44.99 214.747,23.419 197.701,25.549 191.044,12.233 
		184.386,12.233 184.386,12.233 	"/>
	<polygon fill-rule="evenodd" clip-rule="evenodd" fill="#0CC10C" points="180.924,114.764 169.206,105.975 162.282,119.29 
		165.744,134.47 158.82,129.944 150.298,140.862 158.82,147.254 143.64,153.911 143.64,165.097 131.923,173.618 126.596,193.325 
		114.612,195.456 107.954,199.717 113.014,213.032 101.296,215.163 106.356,223.951 97.835,230.343 104.758,236.734 94.373,241.261 
		97.835,247.919 79.193,241.261 50.165,300.116 52.03,308.904 40.311,306.773 46.969,317.693 35.251,321.953 46.969,328.612 
		33.388,332.872 43.507,337.398 28.327,343.79 35.251,348.316 19.805,354.708 30.192,356.841 6.49,369.891 21.403,372.021 
		6.49,380.809 21.403,378.41 13.148,389.596 28.327,385.336 23.001,398.119 46.969,405.042 38.447,420.223 52.03,418.091 
		48.567,428.744 60.551,428.744 62.149,444.191 84.252,439.662 82.655,450.583 94.373,448.451 94.373,459.369 107.954,455.109 
		109.818,465.761 123.4,461.501 128.194,465.761 140.178,463.896 143.64,468.158 152.162,461.501 157.222,470.288 169.206,461.501 
		175.864,468.158 187.582,459.369 206.49,457.239 226.463,461.501 230.191,452.978 243.773,461.501 246.969,450.583 
		258.954,455.109 260.551,446.054 274.133,450.583 275.997,444.191 292.775,446.054 289.312,437.532 302.894,439.662 
		301.295,426.614 314.878,426.614 314.878,420.223 330.058,420.223 323.4,407.173 340.445,402.646 330.058,396.254 345.503,391.728 
		331.657,385.336 347.101,376.547 331.657,374.417 345.503,363.499 352.162,348.316 324.998,343.79 350.564,335.004 
		335.117,330.742 336.982,324.085 326.595,319.557 330.058,308.904 318.341,304.376 328.194,295.855 319.939,289.197 
		306.089,293.458 308.219,282.806 299.698,280.675 290.91,258.838 281.057,258.838 287.713,250.05 279.192,250.05 287.713,241.261 
		277.594,239.131 282.655,230.343 267.208,228.212 274.133,219.423 265.61,217.293 267.208,206.374 258.954,206.374 
		260.551,197.853 248.834,197.853 250.432,186.667 240.045,186.667 241.909,176.015 226.463,180.275 233.654,165.097 
		216.609,165.097 219.805,151.78 209.685,147.254 216.609,134.47 201.164,129.944 209.685,121.155 196.103,119.29 208.087,103.845 
		203.027,97.454 191.044,108.372 192.642,66.827 182.522,68.958 177.461,77.747 180.924,114.764 180.924,114.764 	"/>
	<polygon fill-rule="evenodd" clip-rule="evenodd" fill="#FF0000" points="240.045,400.514 248.834,389.596 267.208,382.938 
		285.851,389.596 289.312,405.042 284.253,424.482 269.073,433.272 252.03,428.744 241.909,422.353 240.045,411.435 
		240.045,400.514 240.045,400.514 	"/>
	<polygon fill-rule="evenodd" clip-rule="evenodd" fill="#FF0000" points="48.567,407.173 57.355,396.254 75.731,389.596 
		94.373,396.254 97.835,411.435 92.775,430.874 77.595,439.662 60.551,435.4 50.165,428.744 48.567,418.091 48.567,407.173 
		48.567,407.173 	"/>
	<polygon fill-rule="evenodd" clip-rule="evenodd" fill="#00CCFF" points="172.401,258.838 153.759,267.359 145.238,289.197 
		162.282,304.376 187.582,302.513 203.027,289.197 203.027,269.756 191.044,260.968 179.326,258.838 172.401,258.838 
		172.401,258.838 	"/>
	<polygon fill-rule="evenodd" clip-rule="evenodd" fill="#00CCFF" points="148.7,417.826 130.058,426.614 121.802,448.451 
		138.581,463.631 164.146,461.501 179.326,448.451 179.326,428.744 167.076,419.956 155.357,417.826 148.7,417.826 148.7,417.826 	
		"/>
	<polygon fill-rule="evenodd" clip-rule="evenodd" fill="#00CCFF" points="84.519,297.986 65.611,306.773 57.355,328.612 
		74.133,343.79 99.699,341.396 115.145,328.612 115.145,308.904 102.895,300.116 91.177,297.986 84.519,297.986 84.519,297.986 	"/>
	<polygon fill-rule="evenodd" clip-rule="evenodd" fill="#FF9900" points="118.075,223.951 104.758,230.343 102.895,241.261 
		111.416,254.576 126.596,252.18 142.042,245.522 142.042,234.87 135.118,223.951 128.194,221.554 118.075,223.951 118.075,223.951 
			"/>
	<polygon fill-rule="evenodd" clip-rule="evenodd" fill="#FF9900" points="304.758,313.165 291.444,319.557 289.312,330.475 
		298.1,343.79 313.28,341.396 328.194,335.004 328.194,324.085 321.537,313.165 314.878,311.035 304.758,313.165 304.758,313.165 	
		"/>
	<polygon fill-rule="evenodd" clip-rule="evenodd" fill="#FF9900" points="180.924,352.581 167.342,358.97 165.744,369.891 
		174.267,382.938 189.711,380.809 204.625,374.15 204.625,363.499 197.968,352.581 191.309,350.182 180.924,352.581 
		180.924,352.581 	"/>
	<polygon fill-rule="evenodd" clip-rule="evenodd" fill="#FFEA00" points="160.418,153.911 147.102,158.439 143.64,169.09 
		143.64,184.538 157.222,186.667 169.206,182.407 180.924,169.09 174.267,156.308 167.076,151.78 160.418,153.911 160.418,153.911 	
		"/>
	<polygon fill-rule="evenodd" clip-rule="evenodd" fill="#FFEA00" points="218.207,191.195 204.625,195.189 201.164,206.374 
		201.164,221.554 214.747,223.684 226.463,219.423 238.712,206.374 231.522,193.325 224.866,188.798 218.207,191.195 
		218.207,191.195 	"/>
	<polygon fill-rule="evenodd" clip-rule="evenodd" fill="#FFEA00" points="241.643,358.97 228.327,363.499 224.866,374.417 
		224.866,389.596 238.448,391.728 250.432,387.2 262.149,374.417 255.491,361.1 248.834,356.841 241.643,358.97 241.643,358.97 	"/>
	<polygon fill-rule="evenodd" clip-rule="evenodd" fill="#FFEA00" points="133.521,372.021 119.672,376.547 116.477,387.2 
		116.477,402.646 130.058,404.511 142.042,400.514 154.027,387.2 147.102,374.417 140.178,369.891 133.521,372.021 133.521,372.021 
			"/>
	<polygon fill-rule="evenodd" clip-rule="evenodd" fill="#FFFFFF" points="31.79,380.809 21.403,393.857 30.192,391.728 
		26.463,402.646 33.388,398.119 36.85,407.173 41.909,402.646 45.105,409.037 48.567,400.514 67.476,389.596 104.758,382.938 
		135.118,369.891 150.298,369.891 177.461,352.581 194.238,350.182 292.775,306.773 304.492,291.594 299.698,289.197 
		304.492,282.806 299.698,282.806 302.894,276.148 297.835,278.278 299.698,269.756 289.312,274.017 290.91,265.229 
		281.057,271.887 281.057,267.359 270.67,274.017 238.712,282.806 147.102,332.872 75.731,363.499 40.311,372.021 31.79,380.809 
		31.79,380.809 	"/>
	<polygon fill-rule="evenodd" clip-rule="evenodd" fill="#FFFFFF" points="58.953,274.017 52.03,276.148 57.355,280.675 
		48.567,285.203 52.03,289.197 43.507,300.116 53.626,297.986 55.224,306.773 67.476,297.986 150.298,274.017 175.864,265.229 
		197.701,262.833 243.773,247.919 262.149,221.554 269.073,215.163 260.551,215.163 263.748,208.505 255.491,210.636 
		257.088,202.113 250.432,206.374 243.773,197.853 238.712,206.374 230.191,217.293 214.747,223.951 177.461,228.212 
		92.775,258.838 69.074,265.229 58.953,274.017 58.953,274.017 	"/>
	<polygon fill-rule="evenodd" clip-rule="evenodd" fill="#FFFFFF" points="142.042,184.538 162.282,180.275 203.027,153.911 
		213.148,158.439 221.403,153.911 219.805,162.7 216.609,177.879 162.282,213.032 148.7,199.717 142.042,184.538 142.042,184.538 	
		"/>
	<polygon fill-rule="evenodd" clip-rule="evenodd" fill="#FFFFFF" points="147.102,162.7 152.162,167.227 162.282,165.097 
		158.82,153.911 150.298,158.439 147.102,162.7 147.102,162.7 	"/>
	<polygon fill-rule="evenodd" clip-rule="evenodd" fill="#FFFFFF" points="211.284,204.244 216.609,208.505 226.463,206.374 
		223.268,195.189 214.747,199.717 211.284,204.244 211.284,204.244 	"/>
	<polygon fill-rule="evenodd" clip-rule="evenodd" fill="#FFFFFF" points="109.818,234.604 114.612,239.131 124.999,236.734 
		121.802,225.815 113.014,230.343 109.818,234.604 109.818,234.604 	"/>
	<polygon fill-rule="evenodd" clip-rule="evenodd" fill="#FFFFFF" points="162.015,276.148 167.076,280.409 177.461,278.278 
		174.267,267.359 165.744,271.62 162.015,276.148 162.015,276.148 	"/>
	<polygon fill-rule="evenodd" clip-rule="evenodd" fill="#FFFFFF" points="62.415,317.693 67.476,321.953 77.595,319.557 
		74.133,308.904 65.611,313.165 62.415,317.693 62.415,317.693 	"/>
	<polygon fill-rule="evenodd" clip-rule="evenodd" fill="#FFFFFF" points="295.97,326.48 301.031,330.475 311.416,328.612 
		308.219,317.693 299.698,321.953 295.97,326.48 295.97,326.48 	"/>
	<polygon fill-rule="evenodd" clip-rule="evenodd" fill="#FFFFFF" points="170.804,365.629 175.864,369.891 186.25,367.759 
		182.788,356.573 174.267,361.1 170.804,365.629 170.804,365.629 	"/>
	<polygon fill-rule="evenodd" clip-rule="evenodd" fill="#FFFFFF" points="228.327,369.891 233.654,374.417 243.773,372.021 
		240.311,361.1 231.79,365.629 228.327,369.891 228.327,369.891 	"/>
	<polygon fill-rule="evenodd" clip-rule="evenodd" fill="#FFFFFF" points="252.03,400.514 257.088,404.511 267.208,402.646 
		263.748,391.728 255.491,396.254 252.03,400.514 252.03,400.514 	"/>
	<polygon fill-rule="evenodd" clip-rule="evenodd" fill="#FFFFFF" points="123.4,382.938 128.194,387.466 138.581,385.336 
		135.118,374.417 126.862,378.677 123.4,382.938 123.4,382.938 	"/>
	<polygon fill-rule="evenodd" clip-rule="evenodd" fill="#FFFFFF" points="142.042,433.272 147.102,437.532 157.222,435.4 
		153.759,424.218 145.238,428.744 142.042,433.272 142.042,433.272 	"/>
	<polygon fill-rule="evenodd" clip-rule="evenodd" fill="#FFFFFF" points="55.757,409.305 60.551,413.563 70.67,411.699 
		67.476,400.514 58.953,405.042 55.757,409.305 55.757,409.305 	"/>
	<polygon fill-rule="evenodd" clip-rule="evenodd" fill="#FF0000" points="196.103,348.316 197.701,341.396 208.087,345.922 
		206.49,337.398 213.148,341.396 211.55,335.004 221.403,335.004 221.403,330.742 236.583,332.872 285.851,337.398 306.089,348.316 
		333.254,354.708 347.101,359.237 341.776,363.499 347.101,369.891 333.254,369.891 335.117,376.547 330.058,374.417 
		326.595,378.41 318.341,374.417 309.817,380.809 301.295,376.547 262.149,369.891 257.088,359.237 245.372,356.841 
		233.654,359.237 223.268,363.499 196.103,356.841 196.103,348.316 196.103,348.316 	"/>
	<polygon fill-rule="evenodd" clip-rule="evenodd" fill="#FF0000" points="79.193,291.594 82.655,287.066 92.775,293.458 
		92.775,287.066 99.699,293.458 99.699,285.203 107.954,287.066 107.954,282.806 118.075,285.203 189.179,319.557 177.461,321.953 
		179.326,330.742 172.401,326.48 172.401,332.872 165.744,328.612 164.146,335.004 150.298,339.53 101.296,317.693 77.595,300.116 
		79.193,291.594 79.193,291.594 	"/>
	<polygon fill-rule="evenodd" clip-rule="evenodd" fill="#FF0000" points="77.595,245.522 70.67,239.131 72.536,252.18 
		62.149,247.919 67.476,254.576 57.355,256.441 63.747,260.968 57.355,265.229 63.747,267.359 60.551,274.017 70.67,271.887 
		72.536,262.833 79.193,267.359 80.791,265.229 85.851,267.359 92.775,260.968 96.237,252.18 87.714,243.658 77.595,245.522 
		77.595,245.522 	"/>
	<polygon fill-rule="evenodd" clip-rule="evenodd" fill="#FF0000" points="243.773,234.87 260.551,232.74 263.748,234.87 
		272.536,228.212 272.536,234.87 282.655,234.87 275.997,241.261 284.253,241.261 277.594,247.919 265.61,258.838 243.773,258.838 
		226.463,254.576 230.191,243.658 235.252,243.658 235.252,239.131 243.773,241.261 243.773,234.87 243.773,234.87 	"/>
	<polygon fill-rule="evenodd" clip-rule="evenodd" fill="#FF0000" points="140.178,171.487 133.254,171.487 135.118,180.275 
		126.596,177.879 129.792,184.538 123.4,188.798 138.581,210.636 155.357,234.87 191.044,236.734 197.701,232.74 201.164,234.87 
		209.685,226.081 180.924,210.636 158.82,195.456 160.418,191.195 152.162,191.195 153.759,186.667 145.238,180.275 143.64,173.618 
		140.178,171.487 140.178,171.487 	"/>
	<polygon fill-rule="evenodd" clip-rule="evenodd" points="187.315,10.103 196.37,26.881 215.545,22.354 205.423,22.62 
		207.821,16.229 200.365,19.957 202.495,12.767 196.37,17.027 196.37,10.103 192.642,15.429 187.315,10.103 187.315,10.103 	"/>
	<polygon fill-rule="evenodd" clip-rule="evenodd" points="213.413,26.082 201.164,42.86 212.349,67.093 209.953,54.311 
		215.545,56.441 211.284,51.115 219.005,49.251 212.881,45.522 220.871,42.061 212.881,40.463 219.005,35.136 211.284,36.734 
		216.875,30.608 212.083,31.407 213.413,26.082 213.413,26.082 	"/>
	<polygon fill-rule="evenodd" clip-rule="evenodd" points="209.154,68.958 191.843,54.843 174.532,77.214 184.653,69.49 
		185.716,77.214 191.309,70.556 195.571,76.681 196.902,69.49 203.027,73.219 201.164,66.827 209.154,68.958 209.154,68.958 	"/>
	<polygon fill-rule="evenodd" clip-rule="evenodd" points="172.935,72.953 179.059,50.05 158.82,42.593 167.076,48.186 
		160.95,51.115 168.674,53.512 161.749,58.838 170.804,58.039 165.211,66.028 171.87,62.566 172.935,72.953 172.935,72.953 	"/>
	<polygon fill-rule="evenodd" clip-rule="evenodd" points="183.586,12.767 179.326,34.603 161.749,40.729 169.473,34.337 
		163.88,30.608 170.804,29.012 167.875,23.685 174.798,24.484 175.597,18.359 179.858,21.555 183.586,12.767 183.586,12.767 	"/>
	<polygon fill-rule="evenodd" clip-rule="evenodd" points="188.648,77.214 187.315,121.687 203.027,101.714 206.222,105.709 
		193.442,129.944 201.428,125.949 203.027,129.944 195.304,136.068 209.154,132.073 212.349,137.932 204.625,142.193 
		204.625,154.444 209.154,156.308 201.428,158.439 201.428,164.83 196.637,160.569 195.304,166.693 188.648,164.83 185.716,172.819 
		180.924,168.559 176.13,176.814 174.798,171.487 169.739,178.678 171.336,168.025 168.674,160.036 163.88,156.574 154.027,156.308 
		161.749,152.846 152.429,140.329 152.429,136.068 163.613,144.324 157.222,132.073 160.418,132.073 171.336,142.193 
		165.211,117.959 169.739,111.568 180.924,124.084 182.522,75.083 188.648,77.214 188.648,77.214 	"/>
	<polygon fill-rule="evenodd" clip-rule="evenodd" points="166.543,199.184 174.532,201.314 176.13,193.059 183.854,199.184 
		183.854,189.064 191.843,193.059 193.442,184.803 199.831,186.933 199.831,180.809 205.958,182.939 206.222,178.678 
		211.016,178.678 211.016,174.95 217.408,174.95 217.408,168.559 222.202,158.439 226.996,160.569 218.741,176.814 233.12,166.693 
		237.649,168.559 226.996,176.814 229.924,178.678 223.799,188.265 242.443,180.809 245.638,184.803 234.453,193.059 252.03,197.32 
		245.638,205.309 239.511,201.314 239.511,209.304 233.12,211.168 234.453,201.314 229.924,194.923 220.871,193.858 
		212.349,194.923 204.625,201.314 203.027,211.168 206.222,217.56 213.947,219.423 223.535,219.423 217.408,225.549 
		212.349,223.684 209.154,229.81 206.222,225.549 201.428,229.81 199.831,223.684 193.442,227.679 191.843,221.287 187.315,221.287 
		187.315,217.56 180.924,219.423 180.924,215.429 172.935,217.56 174.532,211.168 168.141,213.299 169.739,207.44 165.211,205.309 
		166.543,201.314 159.619,199.982 166.543,199.184 166.543,199.184 	"/>
	<polygon fill-rule="evenodd" clip-rule="evenodd" points="133.254,199.184 127.129,186.933 122.335,191.195 130.058,203.178 
		128.727,205.309 112.748,199.184 109.818,203.178 121.003,213.299 111.416,213.299 106.624,219.423 117.542,219.423 
		107.954,225.549 107.954,231.674 114.612,225.282 124.999,225.282 130.058,229.81 131.923,238.065 129.259,245.522 
		117.542,248.185 110.085,244.723 107.954,239.663 103.428,245.789 81.323,239.663 78.394,245.789 95.704,248.185 85.851,251.914 
		87.714,258.039 95.704,256.174 90.644,262.034 101.83,262.034 106.624,256.174 109.818,262.034 116.209,254.311 119.14,260.169 
		123.933,251.914 128.727,258.039 131.923,251.914 138.313,258.039 139.646,250.05 146.037,254.311 150.564,245.789 155.625,250.05 
		158.82,243.924 165.211,248.185 166.543,241.794 174.532,243.924 176.13,239.663 180.924,241.794 180.924,238.065 190.51,239.663 
		190.51,235.668 180.924,235.668 180.924,231.674 172.935,233.805 172.935,227.679 166.543,231.674 166.543,225.549 158.82,227.679 
		160.418,221.287 155.625,223.684 157.222,219.423 150.564,219.423 152.429,213.299 143.107,213.299 146.037,209.304 
		139.646,207.44 143.107,203.178 138.313,199.184 133.254,199.184 133.254,199.184 	"/>
	<polygon fill-rule="evenodd" clip-rule="evenodd" points="241.11,233.805 245.638,231.674 244.305,227.679 250.432,227.679 
		249.099,225.549 260.017,221.287 261.616,223.684 253.361,229.81 258.419,233.805 249.099,238.065 247.236,235.668 
		242.443,235.668 241.11,233.805 241.11,233.805 	"/>
	<polygon fill-rule="evenodd" clip-rule="evenodd" points="112.748,280.675 123.933,282.54 125.531,278.278 131.923,280.675 
		133.254,274.55 139.646,276.414 143.107,272.419 149.233,274.55 150.564,270.29 155.625,272.419 157.222,268.159 160.418,270.29 
		157.222,278.278 157.222,286.535 161.749,294.257 172.935,298.785 185.185,297.187 191.843,292.659 195.571,286.268 
		196.637,276.414 193.442,270.29 185.716,264.431 179.326,264.431 188.648,260.169 193.442,262.034 193.442,258.039 
		198.233,262.034 199.831,256.174 204.625,260.169 206.222,254.311 211.016,258.039 212.349,251.914 217.408,256.174 
		220.338,250.05 226.996,254.311 231.522,248.185 234.453,254.311 241.11,250.05 244.305,254.311 249.099,250.05 252.03,254.311 
		256.822,251.914 258.954,254.576 261.616,250.05 262.948,254.311 278.927,245.789 282.121,250.05 267.742,260.169 278.927,256.174 
		280.258,260.169 269.34,266.295 270.938,270.29 283.719,264.431 283.719,268.159 274.133,274.55 267.742,274.55 267.742,280.675 
		261.616,278.278 261.616,282.54 258.419,280.675 256.822,286.535 250.432,284.937 249.099,292.659 244.305,288.398 
		244.305,294.523 239.511,290.795 237.649,298.785 233.12,296.92 231.522,303.045 222.202,300.915 223.535,307.04 217.408,304.644 
		218.741,311.035 213.947,307.04 211.016,312.9 206.222,308.904 203.027,315.03 198.233,311.035 198.233,317.159 191.843,315.03 
		187.315,323.284 183.854,317.159 176.13,321.419 176.13,315.03 169.739,319.024 169.739,312.9 161.749,315.03 163.613,308.904 
		155.625,312.9 157.222,307.04 147.635,311.035 150.564,304.644 143.107,307.04 144.439,303.045 133.254,304.644 138.313,298.785 
		128.727,303.045 131.923,296.92 123.933,298.785 123.933,292.659 117.542,294.523 119.14,290.795 112.748,292.659 116.209,286.535 
		109.818,286.535 112.748,280.675 112.748,280.675 	"/>
	<polygon fill-rule="evenodd" clip-rule="evenodd" points="74.932,292.659 79.726,290.795 78.394,296.92 84.519,294.523 
		82.921,300.915 87.714,298.785 87.714,304.644 94.106,303.045 94.106,308.904 97.036,307.04 97.036,312.9 103.428,311.035 
		103.161,315.562 107.954,312.9 107.954,319.024 114.346,312.9 112.748,321.419 121.003,317.159 121.003,325.149 128.727,321.419 
		130.058,327.281 139.646,323.284 139.646,329.409 144.439,327.281 144.439,331.273 150.564,329.409 152.429,333.405 
		156.689,328.877 158.82,333.405 167.875,335.269 160.418,337.665 154.027,335.269 154.027,341.396 146.037,339.53 146.037,343.79 
		139.646,343.79 138.313,347.787 133.254,345.388 131.923,349.649 122.335,349.649 121.003,355.774 116.209,351.513 112.748,357.64 
		109.818,355.774 105.025,361.901 98.9,355.774 97.036,364.031 90.644,359.77 89.046,367.759 82.921,364.031 81.323,369.891 
		74.932,367.759 73.334,374.15 67.208,367.759 63.747,376.016 59.219,371.753 56.023,376.016 49.633,371.753 46.437,377.88 
		43.241,376.016 40.311,382.14 37.115,377.88 21.137,392.259 16.344,388.265 38.447,371.753 13.681,377.613 16.344,369.891 
		29.126,367.759 25.931,364.031 29.126,359.77 37.115,364.031 44.839,357.64 40.311,355.774 25.931,351.513 27.262,347.787 
		41.909,349.649 38.447,345.388 43.241,343.79 52.829,345.388 56.023,341.396 41.909,333.405 43.241,329.409 56.023,335.269 
		57.621,329.409 68.541,335.269 79.726,335.269 89.046,331.273 94.106,325.149 94.106,317.159 89.046,308.904 81.323,304.644 
		70.139,304.644 64.546,306.773 59.219,311.035 56.023,321.419 44.839,315.03 46.437,308.904 51.23,312.9 54.425,307.04 
		54.425,298.785 62.415,296.92 71.469,300.915 68.541,292.659 74.932,292.659 74.932,292.659 	"/>
	<polygon fill-rule="evenodd" clip-rule="evenodd" points="223.535,329.409 225.132,325.149 234.453,329.409 234.453,323.284 
		241.11,323.284 242.443,319.024 249.099,323.284 250.432,315.03 258.419,317.159 258.419,311.035 264.811,312.9 264.811,307.04 
		274.133,308.904 272.536,304.644 278.927,304.644 280.258,300.915 285.317,303.045 285.317,296.92 293.306,298.785 
		293.306,294.523 299.433,296.92 307.42,286.535 311.95,290.795 299.433,304.644 321.002,296.121 323.667,303.312 311.151,306.773 
		322.868,309.437 319.939,315.03 313.812,311.035 304.227,311.035 294.639,315.562 289.846,322.752 289.846,333.405 294.905,339.53 
		299.433,343.79 304.227,345.388 298.1,347.787 293.306,343.79 288.512,347.787 286.915,339.53 283.719,345.388 280.258,339.53 
		277.594,343.79 274.133,339.53 270.938,343.79 267.742,339.53 261.616,343.79 261.616,337.665 255.223,341.396 253.361,337.134 
		247.236,339.53 247.236,335.269 239.511,339.53 241.11,333.405 234.717,337.933 236.316,333.405 228.327,335.269 228.327,331.273 
		220.338,335.269 223.535,329.409 223.535,329.409 	"/>
	<polygon fill-rule="evenodd" clip-rule="evenodd" points="305.825,345.388 316.743,343.79 323.4,337.665 324.733,331.273 
		332.456,327.281 335.916,331.273 327.928,335.269 326.331,341.396 345.503,337.665 345.503,343.79 327.928,345.388 
		327.928,349.649 345.503,351.513 335.916,357.64 324.733,355.774 321.537,351.513 318.606,353.645 315.41,351.513 310.617,353.645 
		310.617,349.649 305.825,345.388 305.825,345.388 	"/>
	<polygon fill-rule="evenodd" clip-rule="evenodd" points="57.621,392.259 63.747,388.265 68.541,390.396 70.139,386.399 
		76.53,390.396 79.726,384.27 89.046,386.399 89.046,382.14 94.106,384.27 97.036,380.274 103.428,382.14 105.025,376.016 
		111.416,377.88 114.346,371.753 119.14,374.15 121.003,371.753 125.531,374.15 116.209,382.14 114.612,392.259 120.472,401.314 
		131.923,404.243 143.107,402.913 150.032,397.585 153.494,387.997 152.429,377.88 147.635,374.15 139.646,369.891 142.575,365.629 
		149.233,369.891 149.233,365.894 154.027,367.759 154.027,361.901 159.086,363.232 160.418,357.64 164.412,359.502 
		169.739,355.774 165.211,365.894 165.211,376.016 172.935,384.27 180.924,386.399 195.571,383.471 200.365,375.481 
		199.831,364.031 196.637,357.64 187.315,353.645 188.648,349.649 193.442,351.513 195.304,349.649 198.233,351.513 
		203.027,349.649 204.625,353.645 209.154,351.513 211.016,355.774 217.408,351.513 217.408,359.77 223.535,353.645 223.535,357.64 
		231.522,355.774 231.257,360.304 225.132,369.891 226.996,384.27 237.649,390.396 249.099,390.396 258.419,382.14 260.017,374.15 
		258.419,365.894 253.361,361.901 260.017,359.77 261.616,367.759 264.811,364.031 267.742,369.891 274.133,365.894 
		275.997,371.753 282.121,365.894 282.121,371.753 288.512,365.894 289.846,371.753 298.1,367.759 301.031,371.753 309.018,365.894 
		311.95,371.753 311.95,377.88 343.64,376.016 338.847,382.14 324.733,380.274 323.4,386.399 310.617,386.399 305.825,392.259 
		335.916,396.521 332.456,402.379 315.41,400.514 311.95,406.641 326.331,410.636 319.939,412.765 305.825,410.636 296.237,414.63 
		318.606,422.885 309.018,428.744 299.433,424.749 285.583,434.871 280.258,426.348 285.317,421.021 289.846,412.765 
		288.512,404.243 285.317,396.521 280.258,390.396 269.34,388.265 260.017,388.265 249.099,392.259 242.443,402.379 241.11,410.636 
		244.305,418.625 252.03,426.882 264.811,428.744 274.133,428.744 281.589,443.925 269.073,446.321 265.079,432.205 
		258.155,448.985 249.366,444.724 247.236,455.377 234.717,454.309 237.381,442.06 224.332,459.637 217.408,451.38 207.821,455.377 
		214.747,465.761 198.233,469.491 196.902,454.309 193.973,477.48 183.054,474.816 171.336,464.962 176.929,455.377 
		165.211,459.637 172.668,448.985 172.935,434.871 167.875,423.419 157.222,418.625 144.439,421.021 134.852,426.882 
		131.923,433.006 130.058,439.131 131.923,451.38 140.178,458.837 124.999,462.298 122.335,443.125 107.155,455.377 101.83,450.049 
		121.003,434.871 112.748,428.744 90.644,447.388 81.323,443.125 94.106,434.871 88.78,432.205 74.932,439.131 71.204,434.871 
		87.714,428.744 93.574,422.619 94.106,412.765 90.644,402.379 85.851,396.521 78.394,394.124 64.546,395.19 56.023,400.514 
		49.366,408.238 48.567,414.363 40.311,404.243 44.839,402.379 44.839,398.386 52.829,398.386 51.23,392.259 57.621,392.259 
		57.621,392.259 	"/>
	<polygon fill-rule="evenodd" clip-rule="evenodd" points="176.13,469.491 177.728,508.104 165.211,496.121 146.037,536.866 
		158.82,544.855 161.749,550.715 163.613,558.97 155.625,558.97 163.613,567.226 152.429,565.094 160.418,573.351 149.233,571.221 
		155.625,577.081 143.107,573.351 150.564,581.34 136.715,577.081 141.509,585.603 133.254,581.34 136.715,587.465 125.531,585.603 
		125.531,593.589 116.209,587.465 117.542,591.462 111.416,587.465 105.025,583.472 112.748,591.462 125.531,599.716 
		136.715,601.579 152.429,599.716 160.418,597.586 161.749,601.579 255.223,610.103 280.258,581.34 275.997,565.094 252.03,593.589 
		171.336,589.597 188.648,569.358 217.408,567.226 185.716,557.106 212.349,518.225 228.327,528.611 222.202,506.24 
		195.304,491.859 195.304,469.491 188.648,475.615 183.854,471.62 176.13,469.491 176.13,469.491 	"/>
	<polygon fill-rule="evenodd" clip-rule="evenodd" points="89.046,520.622 117.542,477.745 163.613,496.121 117.542,481.74 
		157.222,501.979 114.346,487.598 154.027,510.503 111.416,496.121 149.233,516.36 107.954,501.979 144.439,524.35 101.83,508.104 
		139.646,530.741 98.9,514.23 128.727,534.471 112.748,540.596 106.624,546.72 103.428,550.715 98.9,567.226 73.334,569.358 
		46.437,561.102 73.334,565.094 76.53,516.36 48.035,558.97 76.53,510.503 82.921,510.503 87.714,524.35 89.046,520.622 
		89.046,520.622 	"/>
	<polygon fill-rule="evenodd" clip-rule="evenodd" points="24.333,540.596 32.322,538.73 40.311,538.73 48.035,544.855 
		48.035,548.851 46.437,557.106 40.311,563.231 30.724,565.094 24.333,563.231 21.137,558.97 19.54,554.977 22.735,544.855 
		24.333,557.106 29.126,557.106 35.518,550.715 35.518,544.855 29.126,542.726 24.333,540.596 24.333,540.596 	"/>
	<polygon fill-rule="evenodd" clip-rule="evenodd" points="220.338,491.859 260.017,477.745 285.317,540.596 291.708,540.596 
		313.812,522.484 342.307,563.231 334.053,569.358 296.237,569.358 321.537,546.72 313.812,526.746 275.997,561.102 
		264.811,544.855 233.12,528.611 223.535,496.121 237.649,528.611 231.522,491.859 245.638,530.741 239.511,491.859 
		255.223,534.471 247.236,487.598 266.409,540.596 253.361,483.872 278.927,540.596 258.419,479.875 220.338,491.859 
		220.338,491.859 	"/>
	<polygon fill-rule="evenodd" clip-rule="evenodd" points="229.924,534.471 209.154,563.231 217.408,567.226 236.316,567.226 
		252.03,544.855 229.924,563.231 244.305,542.726 223.535,563.231 239.511,538.73 218.741,561.102 229.924,534.471 229.924,534.471 
			"/>
	<polygon fill-rule="evenodd" clip-rule="evenodd" points="51.23,418.625 65.345,412.765 76.53,410.636 89.046,410.636 
		87.714,416.76 71.469,418.625 54.425,426.882 51.23,418.625 51.23,418.625 	"/>
	<polygon fill-rule="evenodd" clip-rule="evenodd" points="253.361,400.514 261.616,408.503 283.719,412.765 272.536,422.885 
		260.017,422.885 250.432,418.625 255.223,410.636 253.361,400.514 253.361,400.514 	"/>
	<polygon fill-rule="evenodd" clip-rule="evenodd" points="188.648,276.414 182.522,272.419 174.532,276.414 169.739,284.937 
		179.326,288.398 171.336,292.659 183.854,290.795 188.648,284.937 188.648,276.414 188.648,276.414 	"/>
	<polygon fill-rule="evenodd" clip-rule="evenodd" points="73.334,308.904 68.541,317.159 68.541,325.149 71.469,329.409 
		78.394,331.273 73.334,327.281 70.139,319.024 73.334,311.035 73.334,308.904 73.334,308.904 	"/>
	<polygon fill-rule="evenodd" clip-rule="evenodd" points="141.509,170.955 146.037,180.809 152.429,182.939 160.418,182.939 
		166.543,172.819 157.222,168.559 149.233,174.95 144.439,168.559 146.037,164.83 141.509,170.955 141.509,170.955 	"/>
	<polygon fill-rule="evenodd" clip-rule="evenodd" points="174.532,376.016 182.522,380.274 188.648,376.016 195.304,367.759 
		190.51,359.77 185.716,364.031 187.315,369.891 180.924,374.15 176.13,369.891 174.532,376.016 174.532,376.016 	"/>
	<polygon fill-rule="evenodd" clip-rule="evenodd" points="136.715,440.995 144.439,447.388 143.107,436.999 152.429,443.125 
		152.429,434.871 157.222,440.995 158.82,433.006 163.613,439.131 165.211,434.871 169.739,440.995 166.543,447.388 
		160.418,455.377 154.027,455.377 144.439,455.377 139.646,449.25 136.715,440.995 136.715,440.995 	"/>
</g>
</svg>
